<svg width="32" height="32" viewBox="0 0 32 32" fill="none" xmlns="http://www.w3.org/2000/svg">
<path d="M16 31C24.2843 31 31 24.2843 31 16C31 7.71573 24.2843 1 16 1C7.71573 1 1 7.71573 1 16C1 24.2843 7.71573 31 16 31Z" fill="#039BE5"/>
<path d="M15.9956 5C13.5591 5.00318 11.1926 5.81524 9.26743 7.30875C7.34228 8.80225 5.96749 10.8927 5.35879 13.252C4.75009 15.6112 4.94193 18.1059 5.90422 20.3443C6.86651 22.5828 8.54477 24.4384 10.6756 25.62C10.8088 25.6935 10.9569 25.7356 11.1087 25.7432C11.2606 25.7508 11.4122 25.7237 11.552 25.664C11.6918 25.6042 11.8161 25.5133 11.9155 25.3983C12.0149 25.2832 12.0868 25.147 12.1256 25C12.3494 24.144 12.8506 23.3863 13.5508 22.8456C14.2511 22.3048 15.1109 22.0115 15.9956 22.0115C16.8804 22.0115 17.7402 22.3048 18.4404 22.8456C19.1407 23.3863 19.6419 24.144 19.8656 25C19.9045 25.147 19.9763 25.2832 20.0758 25.3983C20.1752 25.5133 20.2995 25.6042 20.4393 25.664C20.5791 25.7237 20.7307 25.7508 20.8825 25.7432C21.0344 25.7356 21.1825 25.6935 21.3156 25.62C23.4465 24.4384 25.1248 22.5828 26.0871 20.3443C27.0493 18.1059 27.2412 15.6112 26.6325 13.252C26.0238 10.8927 24.649 8.80225 22.7239 7.30875C20.7987 5.81524 18.4322 5.00318 15.9956 5Z" fill="#FFE082"/>
<path d="M16 27C16.5523 27 17 26.5523 17 26C17 25.4477 16.5523 25 16 25C15.4477 25 15 25.4477 15 26C15 26.5523 15.4477 27 16 27Z" fill="#FFE082"/>
<path d="M12.5744 18V17.3352L14.1277 15.897C14.2598 15.7692 14.3706 15.6541 14.46 15.5518C14.551 15.4496 14.6199 15.3494 14.6667 15.2514C14.7136 15.152 14.737 15.0447 14.737 14.9297C14.737 14.8018 14.7079 14.6918 14.6497 14.5994C14.5914 14.5057 14.5119 14.4339 14.411 14.3842C14.3102 14.3331 14.1958 14.3075 14.068 14.3075C13.9345 14.3075 13.818 14.3345 13.7186 14.3885C13.6191 14.4425 13.5424 14.5199 13.4885 14.6207C13.4345 14.7216 13.4075 14.8416 13.4075 14.9808H12.5318C12.5318 14.6953 12.5964 14.4474 12.7257 14.2372C12.8549 14.027 13.036 13.8643 13.269 13.7493C13.502 13.6342 13.7704 13.5767 14.0744 13.5767C14.3869 13.5767 14.6589 13.6321 14.8904 13.7429C15.1234 13.8523 15.3045 14.0043 15.4338 14.1989C15.563 14.3935 15.6277 14.6165 15.6277 14.8679C15.6277 15.0327 15.595 15.1953 15.5297 15.3558C15.4657 15.5163 15.3514 15.6946 15.1866 15.8906C15.0218 16.0852 14.7896 16.3189 14.4899 16.5916L13.8528 17.2159V17.2457H15.6852V18H12.5744ZM16.3537 18V17.3352L17.907 15.897C18.0391 15.7692 18.1499 15.6541 18.2393 15.5518C18.3303 15.4496 18.3991 15.3494 18.446 15.2514C18.4929 15.152 18.5163 15.0447 18.5163 14.9297C18.5163 14.8018 18.4872 14.6918 18.429 14.5994C18.3707 14.5057 18.2912 14.4339 18.1903 14.3842C18.0895 14.3331 17.9751 14.3075 17.8473 14.3075C17.7138 14.3075 17.5973 14.3345 17.4979 14.3885C17.3984 14.4425 17.3217 14.5199 17.2678 14.6207C17.2138 14.7216 17.1868 14.8416 17.1868 14.9808H16.3111C16.3111 14.6953 16.3757 14.4474 16.505 14.2372C16.6342 14.027 16.8153 13.8643 17.0483 13.7493C17.2813 13.6342 17.5497 13.5767 17.8537 13.5767C18.1662 13.5767 18.4382 13.6321 18.6697 13.7429C18.9027 13.8523 19.0838 14.0043 19.2131 14.1989C19.3423 14.3935 19.407 14.6165 19.407 14.8679C19.407 15.0327 19.3743 15.1953 19.3089 15.3558C19.245 15.5163 19.1307 15.6946 18.9659 15.8906C18.8011 16.0852 18.5689 16.3189 18.2692 16.5916L17.6321 17.2159V17.2457H19.4645V18H16.3537Z" fill="#17A2B8"/>
</svg>
