<?xml version="1.0" encoding="iso-8859-1"?>
<!-- Generator: Adobe Illustrator 23.0.4, SVG Export Plug-In . SVG Version: 6.00 Build 0)  -->
<svg version="1.1" xmlns="http://www.w3.org/2000/svg" xmlns:xlink="http://www.w3.org/1999/xlink" x="0px" y="0px"
	 viewBox="0 0 64 64" style="enable-background:new 0 0 64 64;" xml:space="preserve">
<g id="time-14">
	<path style="fill:#4E2600;" d="M51.681,26.085l-2.135,5.691l-2.143-5.691h-1.671v7.425h1.283v-2.449l-0.127-3.268l2.188,5.717
		h0.923l2.194-5.723l-0.129,3.274v2.449h1.285v-7.425H51.681z M42.079,26.085h-1.158l-2.806,7.425h1.342l0.601-1.73h2.876
		l0.607,1.73h1.346L42.079,26.085z M40.421,30.74l1.076-3.08l1.076,3.08H40.421z M34.268,26.763c-0.398-0.519-1.005-0.78-1.818-0.78
		c-0.819,0-1.428,0.266-1.828,0.799c-0.4,0.535-0.6,1.336-0.6,2.402v1.285c0.012,1.038,0.219,1.82,0.625,2.349
		c0.408,0.529,1.011,0.793,1.814,0.793c0.815,0,1.422-0.272,1.822-0.813c0.4-0.543,0.6-1.348,0.6-2.416v-1.285
		C34.873,28.062,34.667,27.284,34.268,26.763z M33.645,30.676c-0.012,0.668-0.112,1.162-0.302,1.475
		c-0.19,0.315-0.484,0.472-0.882,0.472c-0.415,0-0.719-0.17-0.913-0.509c-0.194-0.341-0.292-0.858-0.292-1.552v-1.683
		c0.012-0.652,0.112-1.132,0.302-1.44c0.19-0.308,0.488-0.462,0.891-0.462c0.415,0,0.719,0.163,0.909,0.488
		c0.19,0.325,0.286,0.835,0.286,1.532V30.676z M28.333,26.763c-0.4-0.519-1.007-0.78-1.818-0.78c-0.821,0-1.43,0.266-1.83,0.799
		c-0.398,0.535-0.598,1.336-0.598,2.402v1.285c0.01,1.038,0.217,1.82,0.623,2.349c0.408,0.529,1.011,0.793,1.814,0.793
		c0.815,0,1.422-0.272,1.822-0.813c0.4-0.543,0.6-1.348,0.6-2.416v-1.285C28.937,28.062,28.731,27.284,28.333,26.763z
		 M27.708,30.676c-0.012,0.668-0.112,1.162-0.302,1.475c-0.19,0.315-0.484,0.472-0.882,0.472c-0.415,0-0.719-0.17-0.913-0.509
		c-0.194-0.341-0.29-0.858-0.29-1.552v-1.683c0.01-0.652,0.11-1.132,0.3-1.44c0.19-0.308,0.488-0.462,0.893-0.462
		c0.413,0,0.717,0.163,0.907,0.488c0.19,0.325,0.286,0.835,0.286,1.532V30.676z M22.701,32.402
		c-0.127-0.131-0.306-0.198-0.537-0.198c-0.227,0-0.404,0.067-0.529,0.198c-0.127,0.129-0.19,0.294-0.19,0.492
		c0,0.196,0.065,0.358,0.194,0.484c0.129,0.125,0.304,0.188,0.525,0.188c0.231,0,0.409-0.063,0.537-0.19
		c0.125-0.127,0.188-0.288,0.188-0.482C22.889,32.696,22.826,32.531,22.701,32.402z M22.701,28.072
		c-0.127-0.131-0.306-0.198-0.537-0.198c-0.227,0-0.404,0.067-0.529,0.198c-0.127,0.131-0.19,0.294-0.19,0.492
		s0.065,0.359,0.194,0.484c0.129,0.125,0.304,0.188,0.525,0.188c0.231,0,0.409-0.063,0.537-0.19
		c0.125-0.127,0.188-0.288,0.188-0.482C22.889,28.366,22.826,28.203,22.701,28.072z M16.947,32.521l1.816-1.943
		c0.476-0.517,0.819-0.978,1.029-1.385c0.208-0.406,0.313-0.793,0.313-1.164c0-0.641-0.21-1.14-0.625-1.503
		c-0.417-0.362-0.985-0.543-1.706-0.543c-0.5,0-0.94,0.1-1.322,0.3c-0.384,0.202-0.678,0.482-0.884,0.844
		c-0.206,0.362-0.308,0.77-0.308,1.223h1.238c0-0.425,0.112-0.76,0.333-1.005c0.219-0.245,0.531-0.368,0.933-0.368
		c0.337,0,0.603,0.11,0.803,0.327c0.198,0.217,0.298,0.504,0.298,0.856c0,0.268-0.074,0.537-0.227,0.803
		c-0.151,0.266-0.406,0.6-0.762,0.997l-2.472,2.698v0.852h4.992v-0.989H16.947z M12.664,26.06l-2.898,1.066v1.04l1.822-0.621v5.966
		h1.234V26.06H12.664z M50.637,42.55v1.742h3.789V42.55H50.637z M56.728,42.55v1.742h3.791V42.55H56.728z M16.535,42.55v1.742h9.204
		V42.55H16.535z M3.481,42.55v1.742h9.202V42.55H3.481z M56.728,44.292h3.791V42.55h-3.791V44.292z M59.647,20.913H4.351
		c-0.48,0-0.87,0.39-0.87,0.87v16.49c0,0.482,0.39,0.872,0.87,0.872h55.295c0.482,0,0.872-0.39,0.872-0.872v-16.49
		C60.519,21.303,60.129,20.913,59.647,20.913z M58.777,37.403H5.221V22.655h53.556V37.403z M50.637,44.292h3.789V42.55h-3.789
		V44.292z M47.014,31.062l-0.127-3.268l2.188,5.717h0.923l2.194-5.723l-0.129,3.274v2.449h1.285v-7.425h-1.667l-2.135,5.691
		l-2.143-5.691h-1.671v7.425h1.283V31.062z M40.059,31.781h2.876l0.607,1.73h1.346l-2.809-7.425h-1.158l-2.806,7.425h1.342
		L40.059,31.781z M41.497,27.66l1.076,3.08h-2.151L41.497,27.66z M32.461,33.612c0.815,0,1.422-0.272,1.822-0.813
		c0.4-0.543,0.6-1.348,0.6-2.416v-1.285c-0.01-1.036-0.216-1.814-0.615-2.335c-0.398-0.519-1.005-0.78-1.818-0.78
		c-0.819,0-1.428,0.266-1.828,0.799c-0.4,0.535-0.6,1.336-0.6,2.402v1.285c0.012,1.038,0.219,1.82,0.625,2.349
		C31.055,33.348,31.658,33.612,32.461,33.612z M31.256,28.879c0.012-0.652,0.112-1.132,0.302-1.44
		c0.19-0.308,0.488-0.462,0.891-0.462c0.415,0,0.719,0.163,0.909,0.488c0.19,0.325,0.286,0.835,0.286,1.532v1.679
		c-0.012,0.668-0.112,1.162-0.302,1.475c-0.19,0.315-0.484,0.472-0.882,0.472c-0.415,0-0.719-0.17-0.913-0.509
		c-0.194-0.341-0.292-0.858-0.292-1.552V28.879z M26.525,33.612c0.815,0,1.422-0.272,1.822-0.813c0.4-0.543,0.6-1.348,0.6-2.416
		v-1.285c-0.01-1.036-0.216-1.814-0.613-2.335c-0.4-0.519-1.007-0.78-1.818-0.78c-0.821,0-1.43,0.266-1.83,0.799
		c-0.398,0.535-0.598,1.336-0.598,2.402v1.285c0.01,1.038,0.217,1.82,0.623,2.349C25.118,33.348,25.722,33.612,26.525,33.612z
		 M25.322,28.879c0.01-0.652,0.11-1.132,0.3-1.44c0.19-0.308,0.488-0.462,0.893-0.462c0.413,0,0.717,0.163,0.907,0.488
		c0.19,0.325,0.286,0.835,0.286,1.532v1.679c-0.012,0.668-0.112,1.162-0.302,1.475c-0.19,0.315-0.484,0.472-0.882,0.472
		c-0.415,0-0.719-0.17-0.913-0.509c-0.194-0.341-0.29-0.858-0.29-1.552V28.879z M16.535,44.292h9.204V42.55h-9.204V44.292z
		 M22.164,29.236c0.231,0,0.409-0.063,0.537-0.19c0.125-0.127,0.188-0.288,0.188-0.482c0-0.198-0.063-0.36-0.188-0.492
		c-0.127-0.131-0.306-0.198-0.537-0.198c-0.227,0-0.404,0.067-0.529,0.198c-0.127,0.131-0.19,0.294-0.19,0.492
		s0.065,0.359,0.194,0.484C21.768,29.173,21.943,29.236,22.164,29.236z M22.164,33.565c0.231,0,0.409-0.063,0.537-0.19
		c0.125-0.127,0.188-0.288,0.188-0.482c0-0.198-0.063-0.362-0.188-0.492c-0.127-0.131-0.306-0.198-0.537-0.198
		c-0.227,0-0.404,0.067-0.529,0.198c-0.127,0.129-0.19,0.294-0.19,0.492c0,0.196,0.065,0.358,0.194,0.484
		C21.768,33.503,21.943,33.565,22.164,33.565z M16.831,27.345c0.219-0.245,0.531-0.368,0.933-0.368c0.337,0,0.603,0.11,0.803,0.327
		c0.198,0.217,0.298,0.504,0.298,0.856c0,0.268-0.074,0.537-0.227,0.803c-0.151,0.266-0.406,0.6-0.762,0.997l-2.472,2.698v0.852
		h4.992v-0.989h-3.448l1.816-1.943c0.476-0.517,0.819-0.978,1.029-1.385c0.208-0.406,0.313-0.793,0.313-1.164
		c0-0.641-0.21-1.14-0.625-1.503c-0.417-0.362-0.985-0.543-1.706-0.543c-0.5,0-0.94,0.1-1.322,0.3
		c-0.384,0.202-0.678,0.482-0.884,0.844c-0.206,0.362-0.308,0.77-0.308,1.223h1.238C16.498,27.925,16.61,27.59,16.831,27.345z
		 M11.588,33.511h1.234V26.06h-0.159l-2.898,1.066v1.04l1.822-0.621V33.511z M3.481,44.292h9.202V42.55H3.481V44.292z
		 M61.388,17.432h-8.503v-1.215h3.842c0.482,0,0.872-0.39,0.872-0.872v-3.425c0-0.48-0.39-0.87-0.872-0.87h-9.42
		c-0.482,0-0.872,0.39-0.872,0.87v3.425c0,0.482,0.39,0.872,0.872,0.872h3.836v1.215H12.85v-1.215h3.842
		c0.482,0,0.872-0.39,0.872-0.872v-3.425c0-0.48-0.39-0.87-0.872-0.87h-9.42c-0.482,0-0.87,0.39-0.87,0.87v3.425
		c0,0.482,0.388,0.872,0.87,0.872h3.838v1.215H2.612C1.172,17.432,0,18.603,0,20.043v26.935c0,1.44,1.172,2.61,2.612,2.61h2.913
		L3.871,51.95l1.426,0.999l2.351-3.362h48.703l2.351,3.362l1.426-0.999l-1.654-2.363h2.913c1.569,0,2.612-2.094,2.612-3.479V20.043
		C64,18.603,62.828,17.432,61.388,17.432z M48.178,14.475V12.79h7.68v1.685H48.178z M8.142,14.475V12.79h7.68v1.685H8.142z
		 M62.258,46.108c0,0.711-0.59,1.701-0.87,1.74H2.612c-0.48,0-0.872-0.39-0.872-0.87V20.043c0-0.48,0.392-0.87,0.872-0.87h58.777
		c0.48,0,0.87,0.39,0.87,0.87V46.108z M56.728,44.292h3.791V42.55h-3.791V44.292z M59.647,20.913H4.351c-0.48,0-0.87,0.39-0.87,0.87
		v16.49c0,0.482,0.39,0.872,0.87,0.872h55.295c0.482,0,0.872-0.39,0.872-0.872v-16.49C60.519,21.303,60.129,20.913,59.647,20.913z
		 M58.777,37.403H5.221V22.655h53.556V37.403z M50.637,44.292h3.789V42.55h-3.789V44.292z M47.014,31.062l-0.127-3.268l2.188,5.717
		h0.923l2.194-5.723l-0.129,3.274v2.449h1.285v-7.425h-1.667l-2.135,5.691l-2.143-5.691h-1.671v7.425h1.283V31.062z M40.059,31.781
		h2.876l0.607,1.73h1.346l-2.809-7.425h-1.158l-2.806,7.425h1.342L40.059,31.781z M41.497,27.66l1.076,3.08h-2.151L41.497,27.66z
		 M32.461,33.612c0.815,0,1.422-0.272,1.822-0.813c0.4-0.543,0.6-1.348,0.6-2.416v-1.285c-0.01-1.036-0.216-1.814-0.615-2.335
		c-0.398-0.519-1.005-0.78-1.818-0.78c-0.819,0-1.428,0.266-1.828,0.799c-0.4,0.535-0.6,1.336-0.6,2.402v1.285
		c0.012,1.038,0.219,1.82,0.625,2.349C31.055,33.348,31.658,33.612,32.461,33.612z M31.256,28.879
		c0.012-0.652,0.112-1.132,0.302-1.44c0.19-0.308,0.488-0.462,0.891-0.462c0.415,0,0.719,0.163,0.909,0.488
		c0.19,0.325,0.286,0.835,0.286,1.532v1.679c-0.012,0.668-0.112,1.162-0.302,1.475c-0.19,0.315-0.484,0.472-0.882,0.472
		c-0.415,0-0.719-0.17-0.913-0.509c-0.194-0.341-0.292-0.858-0.292-1.552V28.879z M26.525,33.612c0.815,0,1.422-0.272,1.822-0.813
		c0.4-0.543,0.6-1.348,0.6-2.416v-1.285c-0.01-1.036-0.216-1.814-0.613-2.335c-0.4-0.519-1.007-0.78-1.818-0.78
		c-0.821,0-1.43,0.266-1.83,0.799c-0.398,0.535-0.598,1.336-0.598,2.402v1.285c0.01,1.038,0.217,1.82,0.623,2.349
		C25.118,33.348,25.722,33.612,26.525,33.612z M25.322,28.879c0.01-0.652,0.11-1.132,0.3-1.44c0.19-0.308,0.488-0.462,0.893-0.462
		c0.413,0,0.717,0.163,0.907,0.488c0.19,0.325,0.286,0.835,0.286,1.532v1.679c-0.012,0.668-0.112,1.162-0.302,1.475
		c-0.19,0.315-0.484,0.472-0.882,0.472c-0.415,0-0.719-0.17-0.913-0.509c-0.194-0.341-0.29-0.858-0.29-1.552V28.879z M16.535,44.292
		h9.204V42.55h-9.204V44.292z M22.164,29.236c0.231,0,0.409-0.063,0.537-0.19c0.125-0.127,0.188-0.288,0.188-0.482
		c0-0.198-0.063-0.36-0.188-0.492c-0.127-0.131-0.306-0.198-0.537-0.198c-0.227,0-0.404,0.067-0.529,0.198
		c-0.127,0.131-0.19,0.294-0.19,0.492s0.065,0.359,0.194,0.484C21.768,29.173,21.943,29.236,22.164,29.236z M22.164,33.565
		c0.231,0,0.409-0.063,0.537-0.19c0.125-0.127,0.188-0.288,0.188-0.482c0-0.198-0.063-0.362-0.188-0.492
		c-0.127-0.131-0.306-0.198-0.537-0.198c-0.227,0-0.404,0.067-0.529,0.198c-0.127,0.129-0.19,0.294-0.19,0.492
		c0,0.196,0.065,0.358,0.194,0.484C21.768,33.503,21.943,33.565,22.164,33.565z M16.831,27.345c0.219-0.245,0.531-0.368,0.933-0.368
		c0.337,0,0.603,0.11,0.803,0.327c0.198,0.217,0.298,0.504,0.298,0.856c0,0.268-0.074,0.537-0.227,0.803
		c-0.151,0.266-0.406,0.6-0.762,0.997l-2.472,2.698v0.852h4.992v-0.989h-3.448l1.816-1.943c0.476-0.517,0.819-0.978,1.029-1.385
		c0.208-0.406,0.313-0.793,0.313-1.164c0-0.641-0.21-1.14-0.625-1.503c-0.417-0.362-0.985-0.543-1.706-0.543
		c-0.5,0-0.94,0.1-1.322,0.3c-0.384,0.202-0.678,0.482-0.884,0.844c-0.206,0.362-0.308,0.77-0.308,1.223h1.238
		C16.498,27.925,16.61,27.59,16.831,27.345z M11.588,33.511h1.234V26.06h-0.159l-2.898,1.066v1.04l1.822-0.621V33.511z
		 M3.481,44.292h9.202V42.55H3.481V44.292z M51.681,26.085l-2.135,5.691l-2.143-5.691h-1.671v7.425h1.283v-2.449l-0.127-3.268
		l2.188,5.717h0.923l2.194-5.723l-0.129,3.274v2.449h1.285v-7.425H51.681z M40.921,26.085l-2.806,7.425h1.342l0.601-1.73h2.876
		l0.607,1.73h1.346l-2.809-7.425H40.921z M40.421,30.74l1.076-3.08l1.076,3.08H40.421z M32.45,25.983
		c-0.819,0-1.428,0.266-1.828,0.799c-0.4,0.535-0.6,1.336-0.6,2.402v1.285c0.012,1.038,0.219,1.82,0.625,2.349
		c0.408,0.529,1.011,0.793,1.814,0.793c0.815,0,1.422-0.272,1.822-0.813c0.4-0.543,0.6-1.348,0.6-2.416v-1.285
		c-0.01-1.036-0.216-1.814-0.615-2.335C33.87,26.244,33.263,25.983,32.45,25.983z M33.645,30.676
		c-0.012,0.668-0.112,1.162-0.302,1.475c-0.19,0.315-0.484,0.472-0.882,0.472c-0.415,0-0.719-0.17-0.913-0.509
		c-0.194-0.341-0.292-0.858-0.292-1.552v-1.683c0.012-0.652,0.112-1.132,0.302-1.44c0.19-0.308,0.488-0.462,0.891-0.462
		c0.415,0,0.719,0.163,0.909,0.488c0.19,0.325,0.286,0.835,0.286,1.532V30.676z M26.515,25.983c-0.821,0-1.43,0.266-1.83,0.799
		c-0.398,0.535-0.598,1.336-0.598,2.402v1.285c0.01,1.038,0.217,1.82,0.623,2.349c0.408,0.529,1.011,0.793,1.814,0.793
		c0.815,0,1.422-0.272,1.822-0.813c0.4-0.543,0.6-1.348,0.6-2.416v-1.285c-0.01-1.036-0.216-1.814-0.613-2.335
		C27.934,26.244,27.326,25.983,26.515,25.983z M27.708,30.676c-0.012,0.668-0.112,1.162-0.302,1.475
		c-0.19,0.315-0.484,0.472-0.882,0.472c-0.415,0-0.719-0.17-0.913-0.509c-0.194-0.341-0.29-0.858-0.29-1.552v-1.683
		c0.01-0.652,0.11-1.132,0.3-1.44c0.19-0.308,0.488-0.462,0.893-0.462c0.413,0,0.717,0.163,0.907,0.488
		c0.19,0.325,0.286,0.835,0.286,1.532V30.676z M22.164,27.874c-0.227,0-0.404,0.067-0.529,0.198c-0.127,0.131-0.19,0.294-0.19,0.492
		s0.065,0.359,0.194,0.484c0.129,0.125,0.304,0.188,0.525,0.188c0.231,0,0.409-0.063,0.537-0.19
		c0.125-0.127,0.188-0.288,0.188-0.482c0-0.198-0.063-0.36-0.188-0.492C22.573,27.941,22.395,27.874,22.164,27.874z M22.164,32.204
		c-0.227,0-0.404,0.067-0.529,0.198c-0.127,0.129-0.19,0.294-0.19,0.492c0,0.196,0.065,0.358,0.194,0.484
		c0.129,0.125,0.304,0.188,0.525,0.188c0.231,0,0.409-0.063,0.537-0.19c0.125-0.127,0.188-0.288,0.188-0.482
		c0-0.198-0.063-0.362-0.188-0.492C22.573,32.27,22.395,32.204,22.164,32.204z M18.763,30.578c0.476-0.517,0.819-0.978,1.029-1.385
		c0.208-0.406,0.313-0.793,0.313-1.164c0-0.641-0.21-1.14-0.625-1.503c-0.417-0.362-0.985-0.543-1.706-0.543
		c-0.5,0-0.94,0.1-1.322,0.3c-0.384,0.202-0.678,0.482-0.884,0.844c-0.206,0.362-0.308,0.77-0.308,1.223h1.238
		c0-0.425,0.112-0.76,0.333-1.005c0.219-0.245,0.531-0.368,0.933-0.368c0.337,0,0.603,0.11,0.803,0.327
		c0.198,0.217,0.298,0.504,0.298,0.856c0,0.268-0.074,0.537-0.227,0.803c-0.151,0.266-0.406,0.6-0.762,0.997l-2.472,2.698v0.852
		h4.992v-0.989h-3.448L18.763,30.578z M9.766,27.126v1.04l1.822-0.621v5.966h1.234V26.06h-0.159L9.766,27.126z M59.647,20.913H4.351
		c-0.48,0-0.87,0.39-0.87,0.87v16.49c0,0.482,0.39,0.872,0.87,0.872h55.295c0.482,0,0.872-0.39,0.872-0.872v-16.49
		C60.519,21.303,60.129,20.913,59.647,20.913z M58.777,37.403H5.221V22.655h53.556V37.403z M47.014,31.062l-0.127-3.268l2.188,5.717
		h0.923l2.194-5.723l-0.129,3.274v2.449h1.285v-7.425h-1.667l-2.135,5.691l-2.143-5.691h-1.671v7.425h1.283V31.062z M40.059,31.781
		h2.876l0.607,1.73h1.346l-2.809-7.425h-1.158l-2.806,7.425h1.342L40.059,31.781z M41.497,27.66l1.076,3.08h-2.151L41.497,27.66z
		 M32.461,33.612c0.815,0,1.422-0.272,1.822-0.813c0.4-0.543,0.6-1.348,0.6-2.416v-1.285c-0.01-1.036-0.216-1.814-0.615-2.335
		c-0.398-0.519-1.005-0.78-1.818-0.78c-0.819,0-1.428,0.266-1.828,0.799c-0.4,0.535-0.6,1.336-0.6,2.402v1.285
		c0.012,1.038,0.219,1.82,0.625,2.349C31.055,33.348,31.658,33.612,32.461,33.612z M31.256,28.879
		c0.012-0.652,0.112-1.132,0.302-1.44c0.19-0.308,0.488-0.462,0.891-0.462c0.415,0,0.719,0.163,0.909,0.488
		c0.19,0.325,0.286,0.835,0.286,1.532v1.679c-0.012,0.668-0.112,1.162-0.302,1.475c-0.19,0.315-0.484,0.472-0.882,0.472
		c-0.415,0-0.719-0.17-0.913-0.509c-0.194-0.341-0.292-0.858-0.292-1.552V28.879z M26.525,33.612c0.815,0,1.422-0.272,1.822-0.813
		c0.4-0.543,0.6-1.348,0.6-2.416v-1.285c-0.01-1.036-0.216-1.814-0.613-2.335c-0.4-0.519-1.007-0.78-1.818-0.78
		c-0.821,0-1.43,0.266-1.83,0.799c-0.398,0.535-0.598,1.336-0.598,2.402v1.285c0.01,1.038,0.217,1.82,0.623,2.349
		C25.118,33.348,25.722,33.612,26.525,33.612z M25.322,28.879c0.01-0.652,0.11-1.132,0.3-1.44c0.19-0.308,0.488-0.462,0.893-0.462
		c0.413,0,0.717,0.163,0.907,0.488c0.19,0.325,0.286,0.835,0.286,1.532v1.679c-0.012,0.668-0.112,1.162-0.302,1.475
		c-0.19,0.315-0.484,0.472-0.882,0.472c-0.415,0-0.719-0.17-0.913-0.509c-0.194-0.341-0.29-0.858-0.29-1.552V28.879z M22.164,29.236
		c0.231,0,0.409-0.063,0.537-0.19c0.125-0.127,0.188-0.288,0.188-0.482c0-0.198-0.063-0.36-0.188-0.492
		c-0.127-0.131-0.306-0.198-0.537-0.198c-0.227,0-0.404,0.067-0.529,0.198c-0.127,0.131-0.19,0.294-0.19,0.492
		s0.065,0.359,0.194,0.484C21.768,29.173,21.943,29.236,22.164,29.236z M22.164,33.565c0.231,0,0.409-0.063,0.537-0.19
		c0.125-0.127,0.188-0.288,0.188-0.482c0-0.198-0.063-0.362-0.188-0.492c-0.127-0.131-0.306-0.198-0.537-0.198
		c-0.227,0-0.404,0.067-0.529,0.198c-0.127,0.129-0.19,0.294-0.19,0.492c0,0.196,0.065,0.358,0.194,0.484
		C21.768,33.503,21.943,33.565,22.164,33.565z M16.831,27.345c0.219-0.245,0.531-0.368,0.933-0.368c0.337,0,0.603,0.11,0.803,0.327
		c0.198,0.217,0.298,0.504,0.298,0.856c0,0.268-0.074,0.537-0.227,0.803c-0.151,0.266-0.406,0.6-0.762,0.997l-2.472,2.698v0.852
		h4.992v-0.989h-3.448l1.816-1.943c0.476-0.517,0.819-0.978,1.029-1.385c0.208-0.406,0.313-0.793,0.313-1.164
		c0-0.641-0.21-1.14-0.625-1.503c-0.417-0.362-0.985-0.543-1.706-0.543c-0.5,0-0.94,0.1-1.322,0.3
		c-0.384,0.202-0.678,0.482-0.884,0.844c-0.206,0.362-0.308,0.77-0.308,1.223h1.238C16.498,27.925,16.61,27.59,16.831,27.345z
		 M11.588,33.511h1.234V26.06h-0.159l-2.898,1.066v1.04l1.822-0.621V33.511z"/>
	<path style="fill:#FDD300;" d="M61.388,19.173H2.612c-0.48,0-0.872,0.39-0.872,0.87v26.935c0,0.48,0.392,0.87,0.872,0.87h58.777
		c0.28-0.039,0.87-1.029,0.87-1.74V20.043C62.258,19.563,61.868,19.173,61.388,19.173z M12.684,44.292H3.481V42.55h9.202V44.292z
		 M25.739,44.292h-9.204V42.55h9.204V44.292z M54.426,44.292h-3.789V42.55h3.789V44.292z M60.519,44.292h-3.791V42.55h3.791V44.292z
		 M60.519,38.273c0,0.482-0.39,0.872-0.872,0.872H4.351c-0.48,0-0.87-0.39-0.87-0.872v-16.49c0-0.48,0.39-0.87,0.87-0.87h55.295
		c0.482,0,0.872,0.39,0.872,0.87V38.273z"/>
</g>
<g id="Layer_1">
</g>
</svg>
